<mxfile host="app.diagrams.net" agent="Mozilla/5.0 (Windows NT 10.0; Win64; x64) AppleWebKit/537.36 (KHTML, like Gecko) Chrome/135.0.0.0 Safari/537.36" version="26.0.14">
  <diagram name="Page-1" id="QDGFYSaQBPoxrHVYj7jd">
    <mxGraphModel dx="2098" dy="1692" grid="1" gridSize="10" guides="1" tooltips="1" connect="1" arrows="1" fold="1" page="1" pageScale="1" pageWidth="850" pageHeight="1100" math="0" shadow="0">
      <root>
        <mxCell id="0" />
        <mxCell id="1" parent="0" />
        <mxCell id="wk2XKUK2FEB5nx45ltZG-98" style="edgeStyle=orthogonalEdgeStyle;rounded=0;orthogonalLoop=1;jettySize=auto;html=1;exitX=1;exitY=0.5;exitDx=0;exitDy=0;entryX=0;entryY=0.5;entryDx=0;entryDy=0;endArrow=none;startFill=0;" parent="1" source="wk2XKUK2FEB5nx45ltZG-97" target="wk2XKUK2FEB5nx45ltZG-96" edge="1">
          <mxGeometry relative="1" as="geometry" />
        </mxCell>
        <mxCell id="wk2XKUK2FEB5nx45ltZG-97" value="" style="rounded=0;whiteSpace=wrap;html=1;" parent="1" vertex="1">
          <mxGeometry x="-165" y="115" width="90" height="50" as="geometry" />
        </mxCell>
        <mxCell id="wk2XKUK2FEB5nx45ltZG-99" style="edgeStyle=orthogonalEdgeStyle;rounded=0;orthogonalLoop=1;jettySize=auto;html=1;exitX=1;exitY=0.5;exitDx=0;exitDy=0;entryX=0;entryY=0.5;entryDx=0;entryDy=0;endArrow=none;startFill=0;" parent="1" source="wk2XKUK2FEB5nx45ltZG-96" target="LtFc9OmJbVJ5QGUeGWct-1" edge="1">
          <mxGeometry relative="1" as="geometry" />
        </mxCell>
        <mxCell id="wk2XKUK2FEB5nx45ltZG-96" value="" style="rhombus;whiteSpace=wrap;html=1;" parent="1" vertex="1">
          <mxGeometry x="-30" y="113" width="100" height="54" as="geometry" />
        </mxCell>
        <mxCell id="wk2XKUK2FEB5nx45ltZG-80" style="edgeStyle=orthogonalEdgeStyle;rounded=0;orthogonalLoop=1;jettySize=auto;html=1;entryX=0.5;entryY=0;entryDx=0;entryDy=0;endArrow=none;startFill=0;exitX=0.5;exitY=1;exitDx=0;exitDy=0;" parent="1" target="LtFc9OmJbVJ5QGUeGWct-4" edge="1">
          <mxGeometry relative="1" as="geometry">
            <mxPoint x="440" y="346" as="sourcePoint" />
          </mxGeometry>
        </mxCell>
        <mxCell id="wk2XKUK2FEB5nx45ltZG-40" style="edgeStyle=orthogonalEdgeStyle;rounded=0;orthogonalLoop=1;jettySize=auto;html=1;exitX=0.5;exitY=0;exitDx=0;exitDy=0;entryX=0.5;entryY=1;entryDx=0;entryDy=0;endArrow=none;startFill=0;" parent="1" source="wk2XKUK2FEB5nx45ltZG-32" target="LtFc9OmJbVJ5QGUeGWct-4" edge="1">
          <mxGeometry relative="1" as="geometry">
            <Array as="points">
              <mxPoint x="380" y="456" />
              <mxPoint x="440" y="456" />
            </Array>
          </mxGeometry>
        </mxCell>
        <mxCell id="wk2XKUK2FEB5nx45ltZG-41" style="edgeStyle=orthogonalEdgeStyle;rounded=0;orthogonalLoop=1;jettySize=auto;html=1;exitX=0.5;exitY=0;exitDx=0;exitDy=0;endArrow=none;startFill=0;" parent="1" source="wk2XKUK2FEB5nx45ltZG-36" edge="1">
          <mxGeometry relative="1" as="geometry">
            <mxPoint x="442.5000000000002" y="436" as="targetPoint" />
            <Array as="points">
              <mxPoint x="500" y="456" />
              <mxPoint x="440" y="456" />
              <mxPoint x="440" y="436" />
            </Array>
          </mxGeometry>
        </mxCell>
        <mxCell id="wk2XKUK2FEB5nx45ltZG-39" style="edgeStyle=orthogonalEdgeStyle;rounded=0;orthogonalLoop=1;jettySize=auto;html=1;exitX=0.5;exitY=0;exitDx=0;exitDy=0;entryX=0.5;entryY=1;entryDx=0;entryDy=0;endArrow=none;startFill=0;" parent="1" source="wk2XKUK2FEB5nx45ltZG-33" target="LtFc9OmJbVJ5QGUeGWct-4" edge="1">
          <mxGeometry relative="1" as="geometry">
            <mxPoint x="422.5" y="506" as="sourcePoint" />
            <Array as="points">
              <mxPoint x="440" y="511" />
              <mxPoint x="440" y="436" />
            </Array>
          </mxGeometry>
        </mxCell>
        <mxCell id="LtFc9OmJbVJ5QGUeGWct-1" value="Journey" style="rounded=0;whiteSpace=wrap;html=1;" parent="1" vertex="1">
          <mxGeometry x="120" y="120" width="80" height="40" as="geometry" />
        </mxCell>
        <mxCell id="wk2XKUK2FEB5nx45ltZG-93" value="" style="rounded=0;whiteSpace=wrap;html=1;" parent="1" vertex="1">
          <mxGeometry x="395" y="390" width="90" height="51" as="geometry" />
        </mxCell>
        <mxCell id="wk2XKUK2FEB5nx45ltZG-70" style="edgeStyle=orthogonalEdgeStyle;rounded=0;orthogonalLoop=1;jettySize=auto;html=1;exitX=0.5;exitY=0;exitDx=0;exitDy=0;entryX=0.5;entryY=1;entryDx=0;entryDy=0;endArrow=none;startFill=0;" parent="1" source="LtFc9OmJbVJ5QGUeGWct-2" edge="1">
          <mxGeometry relative="1" as="geometry">
            <mxPoint x="440" y="160" as="targetPoint" />
          </mxGeometry>
        </mxCell>
        <mxCell id="wk2XKUK2FEB5nx45ltZG-79" style="edgeStyle=orthogonalEdgeStyle;rounded=0;orthogonalLoop=1;jettySize=auto;html=1;endArrow=none;startFill=0;exitX=0.5;exitY=1;exitDx=0;exitDy=0;entryX=0.5;entryY=0;entryDx=0;entryDy=0;" parent="1" source="LtFc9OmJbVJ5QGUeGWct-2" target="LtFc9OmJbVJ5QGUeGWct-4" edge="1">
          <mxGeometry relative="1" as="geometry">
            <mxPoint x="490" y="270" as="sourcePoint" />
            <mxPoint x="440" y="294" as="targetPoint" />
          </mxGeometry>
        </mxCell>
        <mxCell id="LtFc9OmJbVJ5QGUeGWct-2" value="Raid" style="rounded=0;whiteSpace=wrap;html=1;" parent="1" vertex="1">
          <mxGeometry x="400" y="200" width="80" height="40" as="geometry" />
        </mxCell>
        <mxCell id="LtFc9OmJbVJ5QGUeGWct-3" value="Battle" style="rounded=0;whiteSpace=wrap;html=1;" parent="1" vertex="1">
          <mxGeometry x="400" width="80" height="40" as="geometry" />
        </mxCell>
        <mxCell id="LtFc9OmJbVJ5QGUeGWct-4" value="Treasure" style="rounded=0;whiteSpace=wrap;html=1;" parent="1" vertex="1">
          <mxGeometry x="400" y="396" width="80" height="40" as="geometry" />
        </mxCell>
        <mxCell id="LtFc9OmJbVJ5QGUeGWct-5" value="Viking" style="rounded=0;whiteSpace=wrap;html=1;" parent="1" vertex="1">
          <mxGeometry x="120" y="400" width="80" height="40" as="geometry" />
        </mxCell>
        <mxCell id="LtFc9OmJbVJ5QGUeGWct-6" value="Viking ship" style="rounded=0;whiteSpace=wrap;html=1;" parent="1" vertex="1">
          <mxGeometry x="-160" y="120" width="80" height="40" as="geometry" />
        </mxCell>
        <mxCell id="wk2XKUK2FEB5nx45ltZG-115" style="edgeStyle=orthogonalEdgeStyle;rounded=0;orthogonalLoop=1;jettySize=auto;html=1;exitX=0;exitY=0.5;exitDx=0;exitDy=0;entryX=0.5;entryY=0;entryDx=0;entryDy=0;endArrow=none;startFill=0;" parent="1" source="LtFc9OmJbVJ5QGUeGWct-16" target="LtFc9OmJbVJ5QGUeGWct-1" edge="1">
          <mxGeometry relative="1" as="geometry">
            <Array as="points">
              <mxPoint x="98" y="90" />
              <mxPoint x="160" y="90" />
            </Array>
          </mxGeometry>
        </mxCell>
        <mxCell id="LtFc9OmJbVJ5QGUeGWct-16" value="&lt;u&gt;Journey ID&lt;/u&gt;" style="ellipse;whiteSpace=wrap;html=1;rotation=-45;" parent="1" vertex="1">
          <mxGeometry x="80" y="10" width="120" height="20" as="geometry" />
        </mxCell>
        <mxCell id="wk2XKUK2FEB5nx45ltZG-116" style="edgeStyle=orthogonalEdgeStyle;rounded=0;orthogonalLoop=1;jettySize=auto;html=1;exitX=0;exitY=0.5;exitDx=0;exitDy=0;endArrow=none;startFill=0;" parent="1" source="wk2XKUK2FEB5nx45ltZG-1" edge="1">
          <mxGeometry relative="1" as="geometry">
            <mxPoint x="160" y="120" as="targetPoint" />
            <Array as="points">
              <mxPoint x="138" y="90" />
              <mxPoint x="161" y="90" />
              <mxPoint x="161" y="120" />
            </Array>
          </mxGeometry>
        </mxCell>
        <mxCell id="wk2XKUK2FEB5nx45ltZG-1" value="Start date" style="ellipse;whiteSpace=wrap;html=1;rotation=-45;" parent="1" vertex="1">
          <mxGeometry x="120" y="10" width="120" height="20" as="geometry" />
        </mxCell>
        <mxCell id="wk2XKUK2FEB5nx45ltZG-118" style="edgeStyle=orthogonalEdgeStyle;rounded=0;orthogonalLoop=1;jettySize=auto;html=1;exitX=0;exitY=0.5;exitDx=0;exitDy=0;entryX=0.5;entryY=0;entryDx=0;entryDy=0;endArrow=none;startFill=0;" parent="1" source="wk2XKUK2FEB5nx45ltZG-2" target="LtFc9OmJbVJ5QGUeGWct-1" edge="1">
          <mxGeometry relative="1" as="geometry">
            <Array as="points">
              <mxPoint x="218" y="90" />
              <mxPoint x="160" y="90" />
            </Array>
          </mxGeometry>
        </mxCell>
        <mxCell id="wk2XKUK2FEB5nx45ltZG-2" value="End date" style="ellipse;whiteSpace=wrap;html=1;rotation=-45;" parent="1" vertex="1">
          <mxGeometry x="200" y="10" width="120" height="20" as="geometry" />
        </mxCell>
        <mxCell id="wk2XKUK2FEB5nx45ltZG-117" style="edgeStyle=orthogonalEdgeStyle;rounded=0;orthogonalLoop=1;jettySize=auto;html=1;exitX=0;exitY=0.5;exitDx=0;exitDy=0;entryX=0.5;entryY=0;entryDx=0;entryDy=0;endArrow=none;startFill=0;" parent="1" source="wk2XKUK2FEB5nx45ltZG-3" target="LtFc9OmJbVJ5QGUeGWct-1" edge="1">
          <mxGeometry relative="1" as="geometry">
            <Array as="points">
              <mxPoint x="178" y="90" />
              <mxPoint x="160" y="90" />
            </Array>
          </mxGeometry>
        </mxCell>
        <mxCell id="wk2XKUK2FEB5nx45ltZG-3" value="Route" style="ellipse;whiteSpace=wrap;html=1;rotation=-45;" parent="1" vertex="1">
          <mxGeometry x="160" y="10" width="120" height="20" as="geometry" />
        </mxCell>
        <mxCell id="wk2XKUK2FEB5nx45ltZG-18" style="edgeStyle=orthogonalEdgeStyle;rounded=0;orthogonalLoop=1;jettySize=auto;html=1;exitX=0;exitY=0.5;exitDx=0;exitDy=0;entryX=1;entryY=0.5;entryDx=0;entryDy=0;endArrow=none;startFill=0;" parent="1" source="wk2XKUK2FEB5nx45ltZG-14" target="LtFc9OmJbVJ5QGUeGWct-2" edge="1">
          <mxGeometry relative="1" as="geometry">
            <Array as="points">
              <mxPoint x="500" y="200" />
              <mxPoint x="500" y="220" />
            </Array>
          </mxGeometry>
        </mxCell>
        <mxCell id="wk2XKUK2FEB5nx45ltZG-14" value="&lt;u&gt;Raid ID&lt;/u&gt;" style="ellipse;whiteSpace=wrap;html=1;" parent="1" vertex="1">
          <mxGeometry x="520" y="190" width="80" height="20" as="geometry" />
        </mxCell>
        <mxCell id="wk2XKUK2FEB5nx45ltZG-19" style="edgeStyle=orthogonalEdgeStyle;rounded=0;orthogonalLoop=1;jettySize=auto;html=1;exitX=0;exitY=0.5;exitDx=0;exitDy=0;endArrow=none;startFill=0;entryX=1;entryY=0.5;entryDx=0;entryDy=0;" parent="1" source="wk2XKUK2FEB5nx45ltZG-15" target="LtFc9OmJbVJ5QGUeGWct-2" edge="1">
          <mxGeometry relative="1" as="geometry">
            <mxPoint x="440" y="205" as="targetPoint" />
            <Array as="points">
              <mxPoint x="500" y="240" />
              <mxPoint x="500" y="220" />
            </Array>
          </mxGeometry>
        </mxCell>
        <mxCell id="wk2XKUK2FEB5nx45ltZG-15" value="Target location" style="ellipse;whiteSpace=wrap;html=1;" parent="1" vertex="1">
          <mxGeometry x="520" y="230" width="120" height="20" as="geometry" />
        </mxCell>
        <mxCell id="wk2XKUK2FEB5nx45ltZG-24" style="edgeStyle=orthogonalEdgeStyle;rounded=0;orthogonalLoop=1;jettySize=auto;html=1;exitX=0;exitY=0.5;exitDx=0;exitDy=0;entryX=1;entryY=0.5;entryDx=0;entryDy=0;endArrow=none;startFill=0;" parent="1" source="wk2XKUK2FEB5nx45ltZG-20" target="LtFc9OmJbVJ5QGUeGWct-3" edge="1">
          <mxGeometry relative="1" as="geometry" />
        </mxCell>
        <mxCell id="wk2XKUK2FEB5nx45ltZG-20" value="&lt;u&gt;Battle ID&lt;/u&gt;" style="ellipse;whiteSpace=wrap;html=1;" parent="1" vertex="1">
          <mxGeometry x="520" y="-50" width="120" height="20" as="geometry" />
        </mxCell>
        <mxCell id="wk2XKUK2FEB5nx45ltZG-26" style="edgeStyle=orthogonalEdgeStyle;rounded=0;orthogonalLoop=1;jettySize=auto;html=1;exitX=0;exitY=0.5;exitDx=0;exitDy=0;entryX=1;entryY=0.5;entryDx=0;entryDy=0;endArrow=none;startFill=0;" parent="1" source="wk2XKUK2FEB5nx45ltZG-21" target="LtFc9OmJbVJ5QGUeGWct-3" edge="1">
          <mxGeometry relative="1" as="geometry" />
        </mxCell>
        <mxCell id="wk2XKUK2FEB5nx45ltZG-21" value="Opposing force" style="ellipse;whiteSpace=wrap;html=1;" parent="1" vertex="1">
          <mxGeometry x="520" y="-20" width="120" height="20" as="geometry" />
        </mxCell>
        <mxCell id="wk2XKUK2FEB5nx45ltZG-27" style="edgeStyle=orthogonalEdgeStyle;rounded=0;orthogonalLoop=1;jettySize=auto;html=1;exitX=0;exitY=0.5;exitDx=0;exitDy=0;entryX=1;entryY=0.5;entryDx=0;entryDy=0;endArrow=none;startFill=0;" parent="1" source="wk2XKUK2FEB5nx45ltZG-22" target="LtFc9OmJbVJ5QGUeGWct-3" edge="1">
          <mxGeometry relative="1" as="geometry" />
        </mxCell>
        <mxCell id="wk2XKUK2FEB5nx45ltZG-22" value="Location" style="ellipse;whiteSpace=wrap;html=1;" parent="1" vertex="1">
          <mxGeometry x="520" y="10" width="120" height="20" as="geometry" />
        </mxCell>
        <mxCell id="wk2XKUK2FEB5nx45ltZG-29" style="edgeStyle=orthogonalEdgeStyle;rounded=0;orthogonalLoop=1;jettySize=auto;html=1;exitX=0;exitY=0.5;exitDx=0;exitDy=0;entryX=1;entryY=0.5;entryDx=0;entryDy=0;endArrow=none;startFill=0;" parent="1" source="wk2XKUK2FEB5nx45ltZG-23" target="LtFc9OmJbVJ5QGUeGWct-3" edge="1">
          <mxGeometry relative="1" as="geometry" />
        </mxCell>
        <mxCell id="wk2XKUK2FEB5nx45ltZG-23" value="Dead vikings" style="ellipse;whiteSpace=wrap;html=1;" parent="1" vertex="1">
          <mxGeometry x="520" y="40" width="120" height="20" as="geometry" />
        </mxCell>
        <mxCell id="wk2XKUK2FEB5nx45ltZG-31" style="edgeStyle=orthogonalEdgeStyle;rounded=0;orthogonalLoop=1;jettySize=auto;html=1;exitX=0;exitY=0.5;exitDx=0;exitDy=0;entryX=1;entryY=0.5;entryDx=0;entryDy=0;endArrow=none;startFill=0;" parent="1" source="wk2XKUK2FEB5nx45ltZG-30" target="LtFc9OmJbVJ5QGUeGWct-3" edge="1">
          <mxGeometry relative="1" as="geometry" />
        </mxCell>
        <mxCell id="wk2XKUK2FEB5nx45ltZG-30" value="Outcome" style="ellipse;whiteSpace=wrap;html=1;" parent="1" vertex="1">
          <mxGeometry x="520" y="70" width="120" height="20" as="geometry" />
        </mxCell>
        <mxCell id="wk2XKUK2FEB5nx45ltZG-32" value="&lt;u&gt;Treasure ID&lt;/u&gt;" style="ellipse;whiteSpace=wrap;html=1;" parent="1" vertex="1">
          <mxGeometry x="340" y="546" width="80" height="20" as="geometry" />
        </mxCell>
        <mxCell id="wk2XKUK2FEB5nx45ltZG-36" value="No. of items" style="ellipse;whiteSpace=wrap;html=1;" parent="1" vertex="1">
          <mxGeometry x="460" y="476" width="80" height="20" as="geometry" />
        </mxCell>
        <mxCell id="wk2XKUK2FEB5nx45ltZG-33" value="Type" style="ellipse;whiteSpace=wrap;html=1;shadow=0;" parent="1" vertex="1">
          <mxGeometry x="400" y="511" width="80" height="20" as="geometry" />
        </mxCell>
        <mxCell id="wk2XKUK2FEB5nx45ltZG-55" style="edgeStyle=orthogonalEdgeStyle;rounded=0;orthogonalLoop=1;jettySize=auto;html=1;exitX=1;exitY=0.5;exitDx=0;exitDy=0;entryX=0.5;entryY=1;entryDx=0;entryDy=0;endArrow=none;startFill=0;" parent="1" source="wk2XKUK2FEB5nx45ltZG-42" edge="1">
          <mxGeometry relative="1" as="geometry">
            <mxPoint x="160.00000000000023" y="440" as="targetPoint" />
            <Array as="points">
              <mxPoint x="120" y="522" />
              <mxPoint x="120" y="470" />
              <mxPoint x="160" y="470" />
            </Array>
          </mxGeometry>
        </mxCell>
        <mxCell id="wk2XKUK2FEB5nx45ltZG-42" value="&lt;u&gt;Viking ID&lt;/u&gt;" style="ellipse;whiteSpace=wrap;html=1;rotation=-45;" parent="1" vertex="1">
          <mxGeometry x="50" y="540" width="80" height="20" as="geometry" />
        </mxCell>
        <mxCell id="wk2XKUK2FEB5nx45ltZG-50" style="edgeStyle=orthogonalEdgeStyle;rounded=0;orthogonalLoop=1;jettySize=auto;html=1;exitX=1;exitY=0.5;exitDx=0;exitDy=0;entryX=0.5;entryY=1;entryDx=0;entryDy=0;endArrow=none;startFill=0;" parent="1" source="wk2XKUK2FEB5nx45ltZG-43" edge="1">
          <mxGeometry relative="1" as="geometry">
            <mxPoint x="160.00000000000023" y="440" as="targetPoint" />
            <Array as="points">
              <mxPoint x="178" y="470" />
              <mxPoint x="160" y="470" />
            </Array>
          </mxGeometry>
        </mxCell>
        <mxCell id="wk2XKUK2FEB5nx45ltZG-43" value="Name" style="ellipse;whiteSpace=wrap;html=1;rotation=-45;" parent="1" vertex="1">
          <mxGeometry x="110" y="540" width="80" height="20" as="geometry" />
        </mxCell>
        <mxCell id="wk2XKUK2FEB5nx45ltZG-53" style="edgeStyle=orthogonalEdgeStyle;rounded=0;orthogonalLoop=1;jettySize=auto;html=1;exitX=1;exitY=0.5;exitDx=0;exitDy=0;entryX=0.5;entryY=1;entryDx=0;entryDy=0;endArrow=none;startFill=0;" parent="1" source="wk2XKUK2FEB5nx45ltZG-49" edge="1">
          <mxGeometry relative="1" as="geometry">
            <mxPoint x="160.00000000000023" y="440" as="targetPoint" />
            <Array as="points">
              <mxPoint x="258" y="470" />
              <mxPoint x="160" y="470" />
            </Array>
          </mxGeometry>
        </mxCell>
        <mxCell id="wk2XKUK2FEB5nx45ltZG-49" value="DOB" style="ellipse;whiteSpace=wrap;html=1;rotation=-45;" parent="1" vertex="1">
          <mxGeometry x="190" y="533.5" width="80" height="20" as="geometry" />
        </mxCell>
        <mxCell id="wk2XKUK2FEB5nx45ltZG-62" style="edgeStyle=orthogonalEdgeStyle;rounded=0;orthogonalLoop=1;jettySize=auto;html=1;exitX=1;exitY=0.5;exitDx=0;exitDy=0;endArrow=none;startFill=0;entryX=0.5;entryY=1;entryDx=0;entryDy=0;" parent="1" source="wk2XKUK2FEB5nx45ltZG-56" target="wk2XKUK2FEB5nx45ltZG-97" edge="1">
          <mxGeometry relative="1" as="geometry">
            <mxPoint x="-30" y="220" as="targetPoint" />
            <Array as="points">
              <mxPoint x="-212" y="190" />
              <mxPoint x="-120" y="190" />
            </Array>
          </mxGeometry>
        </mxCell>
        <mxCell id="wk2XKUK2FEB5nx45ltZG-56" value="&lt;u&gt;Ship ID&lt;/u&gt;" style="ellipse;whiteSpace=wrap;html=1;rotation=-45;" parent="1" vertex="1">
          <mxGeometry x="-280" y="270" width="80" height="20" as="geometry" />
        </mxCell>
        <mxCell id="wk2XKUK2FEB5nx45ltZG-65" style="edgeStyle=orthogonalEdgeStyle;rounded=0;orthogonalLoop=1;jettySize=auto;html=1;exitX=1;exitY=0.5;exitDx=0;exitDy=0;endArrow=none;startFill=0;entryX=0.5;entryY=1;entryDx=0;entryDy=0;" parent="1" source="wk2XKUK2FEB5nx45ltZG-57" target="wk2XKUK2FEB5nx45ltZG-97" edge="1">
          <mxGeometry relative="1" as="geometry">
            <mxPoint x="-90" y="180" as="targetPoint" />
            <Array as="points">
              <mxPoint x="-120" y="247" />
            </Array>
          </mxGeometry>
        </mxCell>
        <mxCell id="wk2XKUK2FEB5nx45ltZG-57" value="Name" style="ellipse;whiteSpace=wrap;html=1;rotation=-45;" parent="1" vertex="1">
          <mxGeometry x="-190" y="265" width="80" height="20" as="geometry" />
        </mxCell>
        <mxCell id="wk2XKUK2FEB5nx45ltZG-64" style="edgeStyle=orthogonalEdgeStyle;rounded=0;orthogonalLoop=1;jettySize=auto;html=1;exitX=1;exitY=0.5;exitDx=0;exitDy=0;endArrow=none;startFill=0;entryX=0.5;entryY=1;entryDx=0;entryDy=0;" parent="1" source="wk2XKUK2FEB5nx45ltZG-59" target="wk2XKUK2FEB5nx45ltZG-97" edge="1">
          <mxGeometry relative="1" as="geometry">
            <mxPoint x="-60" y="240" as="targetPoint" />
            <Array as="points">
              <mxPoint x="-172" y="190" />
              <mxPoint x="-120" y="190" />
            </Array>
          </mxGeometry>
        </mxCell>
        <mxCell id="wk2XKUK2FEB5nx45ltZG-59" value="Type" style="ellipse;whiteSpace=wrap;html=1;shadow=0;rotation=-45;" parent="1" vertex="1">
          <mxGeometry x="-240" y="270" width="80" height="20" as="geometry" />
        </mxCell>
        <mxCell id="wk2XKUK2FEB5nx45ltZG-66" style="edgeStyle=orthogonalEdgeStyle;rounded=0;orthogonalLoop=1;jettySize=auto;html=1;exitX=1;exitY=0.5;exitDx=0;exitDy=0;endArrow=none;startFill=0;entryX=0.5;entryY=1;entryDx=0;entryDy=0;" parent="1" source="wk2XKUK2FEB5nx45ltZG-60" target="wk2XKUK2FEB5nx45ltZG-97" edge="1">
          <mxGeometry relative="1" as="geometry">
            <mxPoint x="-50" y="190" as="targetPoint" />
            <Array as="points">
              <mxPoint x="-80" y="247" />
              <mxPoint x="-80" y="190" />
              <mxPoint x="-120" y="190" />
            </Array>
          </mxGeometry>
        </mxCell>
        <mxCell id="wk2XKUK2FEB5nx45ltZG-60" value="Year built" style="ellipse;whiteSpace=wrap;html=1;rotation=-45;" parent="1" vertex="1">
          <mxGeometry x="-150" y="265" width="80" height="20" as="geometry" />
        </mxCell>
        <mxCell id="wk2XKUK2FEB5nx45ltZG-67" style="edgeStyle=orthogonalEdgeStyle;rounded=0;orthogonalLoop=1;jettySize=auto;html=1;exitX=1;exitY=0.5;exitDx=0;exitDy=0;endArrow=none;startFill=0;entryX=0.5;entryY=1;entryDx=0;entryDy=0;" parent="1" source="wk2XKUK2FEB5nx45ltZG-61" target="wk2XKUK2FEB5nx45ltZG-97" edge="1">
          <mxGeometry relative="1" as="geometry">
            <mxPoint x="-70" y="210" as="targetPoint" />
            <Array as="points">
              <mxPoint x="-40" y="247" />
              <mxPoint x="-40" y="190" />
              <mxPoint x="-120" y="190" />
            </Array>
          </mxGeometry>
        </mxCell>
        <mxCell id="wk2XKUK2FEB5nx45ltZG-61" value="Capacity" style="ellipse;whiteSpace=wrap;html=1;rotation=-45;" parent="1" vertex="1">
          <mxGeometry x="-110" y="265" width="80" height="20" as="geometry" />
        </mxCell>
        <mxCell id="wk2XKUK2FEB5nx45ltZG-71" style="edgeStyle=orthogonalEdgeStyle;rounded=0;orthogonalLoop=1;jettySize=auto;html=1;entryX=1;entryY=0.5;entryDx=0;entryDy=0;endArrow=none;startFill=0;" parent="1" target="LtFc9OmJbVJ5QGUeGWct-1" edge="1">
          <mxGeometry relative="1" as="geometry">
            <mxPoint x="440" y="140" as="sourcePoint" />
          </mxGeometry>
        </mxCell>
        <mxCell id="wk2XKUK2FEB5nx45ltZG-72" style="edgeStyle=orthogonalEdgeStyle;rounded=0;orthogonalLoop=1;jettySize=auto;html=1;exitX=0.75;exitY=0;exitDx=0;exitDy=0;entryX=0.5;entryY=1;entryDx=0;entryDy=0;endArrow=none;startFill=0;" parent="1" source="wk2XKUK2FEB5nx45ltZG-76" target="LtFc9OmJbVJ5QGUeGWct-3" edge="1">
          <mxGeometry relative="1" as="geometry">
            <mxPoint x="440" y="120" as="sourcePoint" />
          </mxGeometry>
        </mxCell>
        <mxCell id="wk2XKUK2FEB5nx45ltZG-73" value="M" style="text;html=1;align=center;verticalAlign=middle;whiteSpace=wrap;rounded=0;" parent="1" vertex="1">
          <mxGeometry x="270" y="120" width="60" height="20" as="geometry" />
        </mxCell>
        <mxCell id="wk2XKUK2FEB5nx45ltZG-75" value="1" style="text;html=1;align=center;verticalAlign=middle;whiteSpace=wrap;rounded=0;" parent="1" vertex="1">
          <mxGeometry x="402.5" y="70" width="60" height="20" as="geometry" />
        </mxCell>
        <mxCell id="wk2XKUK2FEB5nx45ltZG-76" value="1" style="text;html=1;align=center;verticalAlign=middle;whiteSpace=wrap;rounded=0;" parent="1" vertex="1">
          <mxGeometry x="407.5" y="170" width="45" height="20" as="geometry" />
        </mxCell>
        <mxCell id="wk2XKUK2FEB5nx45ltZG-81" value="1" style="text;html=1;align=center;verticalAlign=middle;whiteSpace=wrap;rounded=0;" parent="1" vertex="1">
          <mxGeometry x="410" y="350" width="50" height="30" as="geometry" />
        </mxCell>
        <mxCell id="wk2XKUK2FEB5nx45ltZG-84" value="M" style="text;html=1;align=center;verticalAlign=middle;whiteSpace=wrap;rounded=0;" parent="1" vertex="1">
          <mxGeometry x="405" y="255" width="55" height="30" as="geometry" />
        </mxCell>
        <mxCell id="wk2XKUK2FEB5nx45ltZG-85" value="Note:&lt;div&gt;Can have different types of treasure, but can&#39;t classify both&lt;/div&gt;" style="text;html=1;align=left;verticalAlign=middle;whiteSpace=wrap;rounded=0;fontColor=#66B2FF;" parent="1" vertex="1">
          <mxGeometry x="365" y="596" width="190" height="60" as="geometry" />
        </mxCell>
        <mxCell id="wk2XKUK2FEB5nx45ltZG-86" value="" style="endArrow=classic;html=1;rounded=0;entryX=0.5;entryY=1;entryDx=0;entryDy=0;fontColor=#66B2FF;fillColor=#dae8fc;strokeColor=#6c8ebf;" parent="1" target="wk2XKUK2FEB5nx45ltZG-33" edge="1">
          <mxGeometry width="50" height="50" relative="1" as="geometry">
            <mxPoint x="452.9411764705883" y="586" as="sourcePoint" />
            <mxPoint x="530" y="546" as="targetPoint" />
          </mxGeometry>
        </mxCell>
        <mxCell id="wk2XKUK2FEB5nx45ltZG-112" style="edgeStyle=orthogonalEdgeStyle;rounded=0;orthogonalLoop=1;jettySize=auto;html=1;exitX=1;exitY=0.5;exitDx=0;exitDy=0;entryX=0.5;entryY=0;entryDx=0;entryDy=0;endArrow=none;startFill=0;" parent="1" source="wk2XKUK2FEB5nx45ltZG-87" target="wk2XKUK2FEB5nx45ltZG-111" edge="1">
          <mxGeometry relative="1" as="geometry" />
        </mxCell>
        <mxCell id="wk2XKUK2FEB5nx45ltZG-87" value="Participation" style="rhombus;whiteSpace=wrap;html=1;" parent="1" vertex="1">
          <mxGeometry x="190" y="260" width="100" height="40" as="geometry" />
        </mxCell>
        <mxCell id="wk2XKUK2FEB5nx45ltZG-90" value="1,N" style="text;html=1;align=center;verticalAlign=middle;whiteSpace=wrap;rounded=0;" parent="1" vertex="1">
          <mxGeometry x="160" y="340" width="50" height="20" as="geometry" />
        </mxCell>
        <mxCell id="wk2XKUK2FEB5nx45ltZG-91" value="M" style="text;html=1;align=center;verticalAlign=middle;whiteSpace=wrap;rounded=0;" parent="1" vertex="1">
          <mxGeometry x="160" y="200" width="60" height="20" as="geometry" />
        </mxCell>
        <mxCell id="wk2XKUK2FEB5nx45ltZG-95" value="Shiplog" style="rhombus;whiteSpace=wrap;html=1;" parent="1" vertex="1">
          <mxGeometry x="-20" y="120" width="80" height="40" as="geometry" />
        </mxCell>
        <mxCell id="wk2XKUK2FEB5nx45ltZG-100" value="1" style="text;html=1;align=center;verticalAlign=middle;whiteSpace=wrap;rounded=0;" parent="1" vertex="1">
          <mxGeometry x="-80" y="120" width="60" height="20" as="geometry" />
        </mxCell>
        <mxCell id="wk2XKUK2FEB5nx45ltZG-101" value="M" style="text;html=1;align=center;verticalAlign=middle;whiteSpace=wrap;rounded=0;" parent="1" vertex="1">
          <mxGeometry x="60" y="120" width="60" height="20" as="geometry" />
        </mxCell>
        <mxCell id="wk2XKUK2FEB5nx45ltZG-102" value="Captain" style="rhombus;whiteSpace=wrap;html=1;" parent="1" vertex="1">
          <mxGeometry x="30" y="260" width="100" height="40" as="geometry" />
        </mxCell>
        <mxCell id="wk2XKUK2FEB5nx45ltZG-103" value="" style="endArrow=none;html=1;rounded=0;entryX=0.5;entryY=1;entryDx=0;entryDy=0;" parent="1" target="wk2XKUK2FEB5nx45ltZG-87" edge="1">
          <mxGeometry width="50" height="50" relative="1" as="geometry">
            <mxPoint x="160" y="400" as="sourcePoint" />
            <mxPoint x="190" y="330" as="targetPoint" />
          </mxGeometry>
        </mxCell>
        <mxCell id="wk2XKUK2FEB5nx45ltZG-104" value="" style="endArrow=none;html=1;rounded=0;entryX=0.5;entryY=1;entryDx=0;entryDy=0;exitX=0.5;exitY=0;exitDx=0;exitDy=0;" parent="1" source="wk2XKUK2FEB5nx45ltZG-87" target="LtFc9OmJbVJ5QGUeGWct-1" edge="1">
          <mxGeometry width="50" height="50" relative="1" as="geometry">
            <mxPoint x="190" y="240" as="sourcePoint" />
            <mxPoint x="240" y="190" as="targetPoint" />
          </mxGeometry>
        </mxCell>
        <mxCell id="wk2XKUK2FEB5nx45ltZG-105" value="" style="endArrow=none;html=1;rounded=0;entryX=0.5;entryY=1;entryDx=0;entryDy=0;exitX=0.5;exitY=0;exitDx=0;exitDy=0;" parent="1" source="wk2XKUK2FEB5nx45ltZG-102" target="LtFc9OmJbVJ5QGUeGWct-1" edge="1">
          <mxGeometry width="50" height="50" relative="1" as="geometry">
            <mxPoint x="100" y="240" as="sourcePoint" />
            <mxPoint x="150" y="190" as="targetPoint" />
          </mxGeometry>
        </mxCell>
        <mxCell id="wk2XKUK2FEB5nx45ltZG-106" value="" style="endArrow=none;html=1;rounded=0;entryX=0.5;entryY=1;entryDx=0;entryDy=0;exitX=0.5;exitY=0;exitDx=0;exitDy=0;" parent="1" source="LtFc9OmJbVJ5QGUeGWct-5" target="wk2XKUK2FEB5nx45ltZG-102" edge="1">
          <mxGeometry width="50" height="50" relative="1" as="geometry">
            <mxPoint x="100" y="380" as="sourcePoint" />
            <mxPoint x="150" y="330" as="targetPoint" />
          </mxGeometry>
        </mxCell>
        <mxCell id="wk2XKUK2FEB5nx45ltZG-107" value="1" style="text;html=1;align=center;verticalAlign=middle;whiteSpace=wrap;rounded=0;" parent="1" vertex="1">
          <mxGeometry x="80" y="340" width="60" height="20" as="geometry" />
        </mxCell>
        <mxCell id="wk2XKUK2FEB5nx45ltZG-108" value="M" style="text;html=1;align=center;verticalAlign=middle;whiteSpace=wrap;rounded=0;" parent="1" vertex="1">
          <mxGeometry x="80" y="200" width="60" height="20" as="geometry" />
        </mxCell>
        <mxCell id="wk2XKUK2FEB5nx45ltZG-111" value="Role" style="ellipse;whiteSpace=wrap;html=1;" parent="1" vertex="1">
          <mxGeometry x="280" y="310" width="80" height="20" as="geometry" />
        </mxCell>
        <mxCell id="I7Hc4rI0ThJ-mUjGfMU--10" style="edgeStyle=orthogonalEdgeStyle;rounded=0;orthogonalLoop=1;jettySize=auto;html=1;exitX=0.5;exitY=1;exitDx=0;exitDy=0;" edge="1" parent="1" source="I7Hc4rI0ThJ-mUjGfMU--28">
          <mxGeometry relative="1" as="geometry">
            <mxPoint x="100" y="90" as="targetPoint" />
            <mxPoint x="85" y="10" as="sourcePoint" />
          </mxGeometry>
        </mxCell>
        <mxCell id="I7Hc4rI0ThJ-mUjGfMU--16" value="" style="edgeStyle=orthogonalEdgeStyle;rounded=0;orthogonalLoop=1;jettySize=auto;html=1;" edge="1" parent="1" source="I7Hc4rI0ThJ-mUjGfMU--11" target="I7Hc4rI0ThJ-mUjGfMU--15">
          <mxGeometry relative="1" as="geometry" />
        </mxCell>
        <mxCell id="I7Hc4rI0ThJ-mUjGfMU--17" value="" style="edgeStyle=orthogonalEdgeStyle;rounded=0;orthogonalLoop=1;jettySize=auto;html=1;" edge="1" parent="1" source="I7Hc4rI0ThJ-mUjGfMU--11" target="I7Hc4rI0ThJ-mUjGfMU--15">
          <mxGeometry relative="1" as="geometry" />
        </mxCell>
        <mxCell id="I7Hc4rI0ThJ-mUjGfMU--19" value="" style="edgeStyle=orthogonalEdgeStyle;rounded=0;orthogonalLoop=1;jettySize=auto;html=1;" edge="1" parent="1" source="I7Hc4rI0ThJ-mUjGfMU--11" target="I7Hc4rI0ThJ-mUjGfMU--18">
          <mxGeometry relative="1" as="geometry" />
        </mxCell>
        <mxCell id="I7Hc4rI0ThJ-mUjGfMU--21" value="" style="edgeStyle=orthogonalEdgeStyle;rounded=0;orthogonalLoop=1;jettySize=auto;html=1;" edge="1" parent="1" source="I7Hc4rI0ThJ-mUjGfMU--11" target="I7Hc4rI0ThJ-mUjGfMU--18">
          <mxGeometry relative="1" as="geometry" />
        </mxCell>
        <mxCell id="I7Hc4rI0ThJ-mUjGfMU--22" value="" style="edgeStyle=orthogonalEdgeStyle;rounded=0;orthogonalLoop=1;jettySize=auto;html=1;" edge="1" parent="1" source="I7Hc4rI0ThJ-mUjGfMU--11" target="I7Hc4rI0ThJ-mUjGfMU--18">
          <mxGeometry relative="1" as="geometry" />
        </mxCell>
        <mxCell id="I7Hc4rI0ThJ-mUjGfMU--23" value="" style="edgeStyle=orthogonalEdgeStyle;rounded=0;orthogonalLoop=1;jettySize=auto;html=1;" edge="1" parent="1" source="I7Hc4rI0ThJ-mUjGfMU--11" target="I7Hc4rI0ThJ-mUjGfMU--18">
          <mxGeometry relative="1" as="geometry" />
        </mxCell>
        <mxCell id="I7Hc4rI0ThJ-mUjGfMU--25" style="edgeStyle=orthogonalEdgeStyle;rounded=0;orthogonalLoop=1;jettySize=auto;html=1;exitX=0.75;exitY=1;exitDx=0;exitDy=0;entryX=0.5;entryY=0;entryDx=0;entryDy=0;" edge="1" parent="1" source="I7Hc4rI0ThJ-mUjGfMU--11" target="I7Hc4rI0ThJ-mUjGfMU--24">
          <mxGeometry relative="1" as="geometry" />
        </mxCell>
        <mxCell id="I7Hc4rI0ThJ-mUjGfMU--15" value="VikingID#" style="rounded=0;whiteSpace=wrap;html=1;" vertex="1" parent="1">
          <mxGeometry x="-190" y="527" width="70" height="29" as="geometry" />
        </mxCell>
        <mxCell id="I7Hc4rI0ThJ-mUjGfMU--18" value="Skill" style="rounded=0;whiteSpace=wrap;html=1;" vertex="1" parent="1">
          <mxGeometry x="-112.5" y="527" width="65" height="33" as="geometry" />
        </mxCell>
        <mxCell id="I7Hc4rI0ThJ-mUjGfMU--24" value="rank" style="rounded=0;whiteSpace=wrap;html=1;" vertex="1" parent="1">
          <mxGeometry x="-40" y="528.5" width="60" height="30" as="geometry" />
        </mxCell>
        <mxCell id="I7Hc4rI0ThJ-mUjGfMU--26" value="" style="endArrow=none;html=1;rounded=0;" edge="1" parent="1">
          <mxGeometry width="50" height="50" relative="1" as="geometry">
            <mxPoint x="-185" y="550" as="sourcePoint" />
            <mxPoint x="-125" y="550" as="targetPoint" />
          </mxGeometry>
        </mxCell>
        <mxCell id="I7Hc4rI0ThJ-mUjGfMU--27" value="" style="endArrow=none;html=1;rounded=0;" edge="1" parent="1">
          <mxGeometry width="50" height="50" relative="1" as="geometry">
            <mxPoint x="-115" y="550" as="sourcePoint" />
            <mxPoint x="-45" y="550" as="targetPoint" />
          </mxGeometry>
        </mxCell>
        <mxCell id="I7Hc4rI0ThJ-mUjGfMU--29" value="" style="edgeStyle=orthogonalEdgeStyle;rounded=0;orthogonalLoop=1;jettySize=auto;html=1;exitX=0.5;exitY=1;exitDx=0;exitDy=0;" edge="1" parent="1" target="I7Hc4rI0ThJ-mUjGfMU--28">
          <mxGeometry relative="1" as="geometry">
            <mxPoint x="100" y="90" as="targetPoint" />
            <mxPoint x="85" y="10" as="sourcePoint" />
          </mxGeometry>
        </mxCell>
        <mxCell id="I7Hc4rI0ThJ-mUjGfMU--28" value="&lt;u&gt;Captain#&lt;/u&gt;" style="ellipse;whiteSpace=wrap;html=1;rotation=-45;" vertex="1" parent="1">
          <mxGeometry x="20" width="120" height="20" as="geometry" />
        </mxCell>
        <mxCell id="I7Hc4rI0ThJ-mUjGfMU--30" value="" style="endArrow=none;html=1;rounded=0;exitX=1;exitY=0.5;exitDx=0;exitDy=0;" edge="1" parent="1" source="I7Hc4rI0ThJ-mUjGfMU--11" target="LtFc9OmJbVJ5QGUeGWct-5">
          <mxGeometry width="50" height="50" relative="1" as="geometry">
            <mxPoint x="-30" y="436" as="sourcePoint" />
            <mxPoint x="20" y="386" as="targetPoint" />
          </mxGeometry>
        </mxCell>
        <mxCell id="I7Hc4rI0ThJ-mUjGfMU--31" value="" style="rounded=0;whiteSpace=wrap;html=1;" vertex="1" parent="1">
          <mxGeometry x="-135" y="391" width="110" height="60" as="geometry" />
        </mxCell>
        <mxCell id="I7Hc4rI0ThJ-mUjGfMU--11" value="Skills" style="rounded=0;whiteSpace=wrap;html=1;" vertex="1" parent="1">
          <mxGeometry x="-120" y="401" width="80" height="40" as="geometry" />
        </mxCell>
        <mxCell id="I7Hc4rI0ThJ-mUjGfMU--57" value="N" style="text;html=1;align=center;verticalAlign=middle;resizable=0;points=[];autosize=1;strokeColor=none;fillColor=none;" vertex="1" parent="1">
          <mxGeometry x="-25" y="396" width="30" height="30" as="geometry" />
        </mxCell>
        <mxCell id="I7Hc4rI0ThJ-mUjGfMU--58" value="N" style="text;html=1;align=center;verticalAlign=middle;resizable=0;points=[];autosize=1;strokeColor=none;fillColor=none;" vertex="1" parent="1">
          <mxGeometry x="85" y="418" width="30" height="30" as="geometry" />
        </mxCell>
      </root>
    </mxGraphModel>
  </diagram>
</mxfile>
